<svg width="80" height="70" viewBox="0 0 125 107" xmlns="http://www.w3.org/2000/svg"><g fill="none" fill-rule="evenodd"><circle cx="48" cy="59" r="48" class="circle-fill" style="fill: #c6fdf3;"></circle> <path d="M58.536 39.713c0-6.884 1.72-14.007 5.163-21.368 3.443-7.36 8.167-13.458 14.173-18.292l11.645 7.91c-3.589 4.98-6.262 10.016-8.02 15.106S78.86 33.598 78.86 39.384v13.623H58.536V39.713z" class="path-fill" style="fill: #55ebd0;"></path> <path d="M93.252 39.713c0-6.884 1.722-14.007 5.164-21.368 3.442-7.36 8.166-13.458 14.172-18.292l11.646 7.91c-3.589 4.98-6.262 10.016-8.02 15.106s-2.637 10.529-2.637 16.315v13.623H93.252V39.713z" class="path-fill-1" style="fill: #55ebd0;"></path></g></svg>